<?xml version="1.0" encoding="UTF-8"?>
<!DOCTYPE svg PUBLIC "-//W3C//DTD SVG 1.1//EN" "http://www.w3.org/Graphics/SVG/1.1/DTD/svg11.dtd">
<svg xmlns="http://www.w3.org/2000/svg" version="1.1" width="144px" height="33px" style="shape-rendering:geometricPrecision; text-rendering:geometricPrecision; image-rendering:optimizeQuality; fill-rule:evenodd; clip-rule:evenodd" xmlns:xlink="http://www.w3.org/1999/xlink">
<g><path style="opacity:0.644" fill="#000000" d="M 105.5,-0.5 C 106.833,-0.5 108.167,-0.5 109.5,-0.5C 111.173,2.14166 110.673,4.14166 108,5.5C 104.67,4.5089 103.836,2.5089 105.5,-0.5 Z"/></g>
<g><path style="opacity:0.752" fill="#000000" d="M 114.5,1.5 C 116.167,1.5 117.833,1.5 119.5,1.5C 119.5,3.16667 119.5,4.83333 119.5,6.5C 121.167,6.5 122.833,6.5 124.5,6.5C 124.5,8.16667 124.5,9.83333 124.5,11.5C 122.833,11.5 121.167,11.5 119.5,11.5C 119.335,14.5184 119.502,17.5184 120,20.5C 121.356,21.3802 122.856,21.7135 124.5,21.5C 124.5,22.8333 124.5,24.1667 124.5,25.5C 120.993,26.0065 117.826,25.3398 115,23.5C 114.501,19.5138 114.334,15.5138 114.5,11.5C 113.5,11.5 112.5,11.5 111.5,11.5C 111.5,9.83333 111.5,8.16667 111.5,6.5C 112.5,6.5 113.5,6.5 114.5,6.5C 114.5,4.83333 114.5,3.16667 114.5,1.5 Z"/></g>
<g><path style="opacity:0.775" fill="#000000" d="M -0.5,19.5 C -0.5,16.8333 -0.5,14.1667 -0.5,11.5C 2.79633,6.01166 7.29633,4.67833 13,7.5C 14.6995,6.59391 16.5328,6.26057 18.5,6.5C 18.3269,12.948 18.9935,19.2814 20.5,25.5C 15.1901,24.6601 9.8568,24.4935 4.5,25C 2.25633,23.5945 0.589662,21.7611 -0.5,19.5 Z M 7.5,10.5 C 13.5721,11.7117 14.9055,14.8784 11.5,20C 6.1408,21.1428 3.97414,18.9762 5,13.5C 6.04499,12.6266 6.87833,11.6266 7.5,10.5 Z"/></g>
<g><path style="opacity:0.771" fill="#000000" d="M 26.5,32.5 C 24.8333,32.5 23.1667,32.5 21.5,32.5C 21.5,23.8333 21.5,15.1667 21.5,6.5C 23.4672,6.26057 25.3005,6.59391 27,7.5C 32.5638,4.57541 36.8971,5.90874 40,11.5C 42.3099,22.3549 38.1432,26.6883 27.5,24.5C 26.52,27.0865 26.1866,29.7531 26.5,32.5 Z M 29.5,10.5 C 35.5721,11.7117 36.9055,14.8784 33.5,20C 28.1408,21.1428 25.9741,18.9762 27,13.5C 28.045,12.6266 28.8783,11.6266 29.5,10.5 Z"/></g>
<g><path style="opacity:0.765" fill="#000000" d="M 46.5,32.5 C 44.8333,32.5 43.1667,32.5 41.5,32.5C 41.5,23.8333 41.5,15.1667 41.5,6.5C 43.4672,6.26057 45.3005,6.59391 47,7.5C 52.5768,4.58001 56.9101,5.91335 60,11.5C 62.074,23.1067 57.7407,27.1067 47,23.5C 46.502,26.4816 46.3354,29.4816 46.5,32.5 Z M 49.5,10.5 C 55.7577,11.4774 57.0911,14.6441 53.5,20C 46.1267,19.7409 44.7934,16.5742 49.5,10.5 Z"/></g>
<g><path style="opacity:0.752" fill="#000000" d="M 143.5,11.5 C 143.5,13.5 143.5,15.5 143.5,17.5C 139.116,17.1744 134.783,17.5078 130.5,18.5C 131.436,19.9744 132.77,20.9744 134.5,21.5C 136.523,20.4599 138.523,19.4599 140.5,18.5C 141.584,18.685 142.584,19.0183 143.5,19.5C 143.5,19.8333 143.5,20.1667 143.5,20.5C 140.411,25.1206 136.077,26.6206 130.5,25C 123.325,19.3386 122.991,13.3386 129.5,7C 135.483,4.60571 140.149,6.10571 143.5,11.5 Z M 132.5,10.5 C 135.022,10.1281 137.022,10.9614 138.5,13C 135.833,13.6667 133.167,13.6667 130.5,13C 131.381,12.2917 132.047,11.4584 132.5,10.5 Z"/></g>
<g><path style="opacity:0.75" fill="#000000" d="M 60.5,6.5 C 62.288,6.21478 63.9547,6.54811 65.5,7.5C 66.2486,10.9104 67.2486,14.2437 68.5,17.5C 69.5,14.167 70.5,10.8337 71.5,7.5C 73.4213,6.35901 75.4213,6.19234 77.5,7C 78.4297,10.8805 79.5964,14.7138 81,18.5C 81.8374,14.486 82.6708,10.486 83.5,6.5C 85.1667,6.5 86.8333,6.5 88.5,6.5C 87.3251,12.8663 85.9918,19.1996 84.5,25.5C 82.076,25.8076 79.7427,25.4742 77.5,24.5C 75.3883,12.5846 73.5549,12.5846 72,24.5C 69.6194,25.435 67.1194,25.7683 64.5,25.5C 63.1667,19.1667 61.8333,12.8333 60.5,6.5 Z"/></g>
<g><path style="opacity:0.737" fill="#000000" d="M 89.5,6.5 C 93.5,7.83333 97.5,7.83333 101.5,6.5C 101.5,8.16667 101.5,9.83333 101.5,11.5C 99.5328,11.2606 97.6995,11.5939 96,12.5C 94.6326,16.6996 94.1326,21.0329 94.5,25.5C 92.8333,25.5 91.1667,25.5 89.5,25.5C 89.5,19.1667 89.5,12.8333 89.5,6.5 Z"/></g>
<g><path style="opacity:0.761" fill="#000000" d="M 102.5,6.5 C 105.167,6.5 107.833,6.5 110.5,6.5C 110.5,12.8333 110.5,19.1667 110.5,25.5C 108.833,25.5 107.167,25.5 105.5,25.5C 105.5,20.8333 105.5,16.1667 105.5,11.5C 104.5,11.5 103.5,11.5 102.5,11.5C 102.5,9.83333 102.5,8.16667 102.5,6.5 Z"/></g>
</svg>
