<?xml version="1.0" encoding="UTF-8"?>
<!DOCTYPE svg PUBLIC "-//W3C//DTD SVG 1.1//EN" "http://www.w3.org/Graphics/SVG/1.1/DTD/svg11.dtd">
<svg xmlns="http://www.w3.org/2000/svg" version="1.1" width="43px" height="29px" style="shape-rendering:geometricPrecision; text-rendering:geometricPrecision; image-rendering:optimizeQuality; fill-rule:evenodd; clip-rule:evenodd" xmlns:xlink="http://www.w3.org/1999/xlink">
<g><path style="opacity:0.687" fill="#000000" d="M 16.5,-0.5 C 19.1667,-0.5 21.8333,-0.5 24.5,-0.5C 29.3692,1.36278 33.0359,4.69612 35.5,9.5C 38.1301,10.8037 40.4634,12.4704 42.5,14.5C 42.5,17.5 42.5,20.5 42.5,23.5C 40.4752,25.1964 38.4752,26.863 36.5,28.5C 36.1667,28.5 35.8333,28.5 35.5,28.5C 35.2148,26.712 35.5481,25.0453 36.5,23.5C 40.1365,20.5025 40.1365,17.3359 36.5,14C 34.8659,13.5065 33.1992,13.3398 31.5,13.5C 29.1046,4.30216 23.4379,1.46883 14.5,5C 12.7866,6.37818 11.4533,8.04485 10.5,10C 5.81951,10.6805 3.15284,13.3471 2.5,18C 3.03619,20.24 4.20285,22.0734 6,23.5C 6.49351,25.1341 6.66018,26.8008 6.5,28.5C 6.16667,28.5 5.83333,28.5 5.5,28.5C 3.16667,26.8333 1.16667,24.8333 -0.5,22.5C -0.5,19.1667 -0.5,15.8333 -0.5,12.5C 5.5233,8.45676 11.19,4.12342 16.5,-0.5 Z"/></g>
<g><path style="opacity:0.735" fill="#000000" d="M 16.5,17.5 C 15.2854,21.0326 15.2854,24.6992 16.5,28.5C 14.1667,28.5 11.8333,28.5 9.5,28.5C 8.60194,24.1814 8.10194,19.8481 8,15.5C 11.8788,11.2889 14.7122,11.9555 16.5,17.5 Z"/></g>
<g><path style="opacity:0.745" fill="#000000" d="M 34.5,28.5 C 31.8333,28.5 29.1667,28.5 26.5,28.5C 26.8076,26.076 26.4742,23.7427 25.5,21.5C 24.2857,23.8587 24.2857,26.192 25.5,28.5C 23.1667,28.5 20.8333,28.5 18.5,28.5C 17.7536,24.873 17.0869,21.2064 16.5,17.5C 17.8149,16.5244 19.1482,15.5244 20.5,14.5C 22.4829,15.982 24.3163,17.6487 26,19.5C 27.1133,17.6707 28.6133,16.8374 30.5,17C 31.8333,18.3333 33.1667,19.6667 34.5,21C 32.011,23.4336 32.011,25.9336 34.5,28.5 Z"/></g>
</svg>
