<?xml version="1.0" encoding="UTF-8"?>
<!DOCTYPE svg PUBLIC "-//W3C//DTD SVG 1.1//EN" "http://www.w3.org/Graphics/SVG/1.1/DTD/svg11.dtd">
<svg xmlns="http://www.w3.org/2000/svg" version="1.1" width="131px" height="28px" style="shape-rendering:geometricPrecision; text-rendering:geometricPrecision; image-rendering:optimizeQuality; fill-rule:evenodd; clip-rule:evenodd" xmlns:xlink="http://www.w3.org/1999/xlink">
<g><path style="opacity:0.714" fill="#000000" d="M 18.5,-0.5 C 19.8333,-0.5 21.1667,-0.5 22.5,-0.5C 22.5,6.83333 22.5,14.1667 22.5,21.5C 21.1667,21.5 19.8333,21.5 18.5,21.5C 18.5,14.1667 18.5,6.83333 18.5,-0.5 Z"/></g>
<g><path style="opacity:0.74" fill="#000000" d="M 63.5,-0.5 C 64.8333,-0.5 66.1667,-0.5 67.5,-0.5C 67.5,6.83333 67.5,14.1667 67.5,21.5C 63.9736,21.0607 60.3069,20.894 56.5,21C 53.5715,17.7428 52.7382,13.9094 54,9.5C 56.5715,6.6532 59.5715,5.98654 63,7.5C 63.4974,4.85397 63.6641,2.1873 63.5,-0.5 Z M 59.5,10.5 C 64.5533,12.4915 64.72,14.8249 60,17.5C 58.1147,17.1379 57.2814,15.9713 57.5,14C 57.8618,12.5657 58.5285,11.3991 59.5,10.5 Z"/></g>
<g><path style="opacity:0.7" fill="#000000" d="M -0.5,14.5 C -0.5,11.8333 -0.5,9.16667 -0.5,6.5C 2.64702,1.10135 7.31368,-0.731982 13.5,1C 15.3031,1.63681 16.6364,2.80348 17.5,4.5C 17.1131,5.71986 16.2798,6.38652 15,6.5C 9.35519,3.02896 5.52186,4.3623 3.5,10.5C 5.22615,17.8387 8.89282,19.172 14.5,14.5C 18.5507,17.6287 17.884,19.7954 12.5,21C 6.4773,21.9889 2.14397,19.8222 -0.5,14.5 Z"/></g>
<g><path style="opacity:0.612" fill="#000000" d="M 69.5,0.5 C 71.1667,0.5 72.8333,0.5 74.5,0.5C 74.5,1.83333 74.5,3.16667 74.5,4.5C 72.8333,4.5 71.1667,4.5 69.5,4.5C 69.5,3.16667 69.5,1.83333 69.5,0.5 Z"/></g>
<g><path style="opacity:0.705" fill="#000000" d="M 27.5,6.5 C 32.8088,5.56546 36.3088,7.56546 38,12.5C 38.4955,10.5273 38.6621,8.5273 38.5,6.5C 39.8333,6.5 41.1667,6.5 42.5,6.5C 42.3359,9.1873 42.5026,11.854 43,14.5C 44.6667,18.5 46.3333,18.5 48,14.5C 48.4974,11.854 48.6641,9.1873 48.5,6.5C 49.8333,6.5 51.1667,6.5 52.5,6.5C 52.5,11.5 52.5,16.5 52.5,21.5C 48.9736,21.0607 45.3069,20.894 41.5,21C 40.1498,19.2817 38.9832,17.4484 38,15.5C 36.3054,20.5988 32.8054,22.4321 27.5,21C 22.232,16.1706 22.232,11.3373 27.5,6.5 Z M 29.5,10.5 C 33.9699,11.265 34.9699,13.4317 32.5,17C 27.3823,16.8242 26.3823,14.6576 29.5,10.5 Z"/></g>
<g><path style="opacity:0.69" fill="#000000" d="M 70.5,6.5 C 71.8221,6.33003 72.9887,6.66337 74,7.5C 74.4992,12.1548 74.6658,16.8215 74.5,21.5C 73.1667,21.5 71.8333,21.5 70.5,21.5C 70.5,16.5 70.5,11.5 70.5,6.5 Z"/></g>
<g><path style="opacity:0.707" fill="#000000" d="M 76.5,6.5 C 79.1373,7.15131 81.6373,7.15131 84,6.5C 85.8122,6.49337 87.3122,7.16003 88.5,8.5C 89.4386,12.7649 89.7719,17.0983 89.5,21.5C 88.1667,21.5 86.8333,21.5 85.5,21.5C 85.665,18.1501 85.4983,14.8168 85,11.5C 83.4126,10.273 82.0793,10.6063 81,12.5C 80.502,15.4816 80.3354,18.4816 80.5,21.5C 79.1667,21.5 77.8333,21.5 76.5,21.5C 76.5,16.5 76.5,11.5 76.5,6.5 Z"/></g>
<g><path style="opacity:0.694" fill="#000000" d="M 94.5,6.5 C 98.2062,7.53881 101.873,7.53881 105.5,6.5C 105.5,11.5 105.5,16.5 105.5,21.5C 102.616,20.6174 99.783,20.6174 97,21.5C 91.1437,20.131 89.1437,16.4643 91,10.5C 91.6897,8.64977 92.8564,7.31643 94.5,6.5 Z M 96.5,10.5 C 100.473,11.0755 101.473,13.2421 99.5,17C 94.3823,16.8242 93.3823,14.6576 96.5,10.5 Z"/></g>
<g><path style="opacity:0.678" fill="#000000" d="M 130.5,6.5 C 130.5,7.5 130.5,8.5 130.5,9.5C 127.647,15.2205 125.314,21.2205 123.5,27.5C 121.833,27.5 120.167,27.5 118.5,27.5C 119.358,24.9499 120.358,22.4499 121.5,20C 119.871,16.5732 118.371,13.0732 117,9.5C 115.333,10.1667 113.667,10.8333 112,11.5C 110.801,14.7256 110.301,18.059 110.5,21.5C 109.167,21.5 107.833,21.5 106.5,21.5C 106.5,16.5 106.5,11.5 106.5,6.5C 111.08,6.85694 115.747,7.0236 120.5,7C 121.289,9.36512 122.456,11.5318 124,13.5C 124.397,9.28777 126.564,6.95443 130.5,6.5 Z"/></g>
</svg>
