<?xml version="1.0" encoding="UTF-8"?>
<!DOCTYPE svg PUBLIC "-//W3C//DTD SVG 1.1//EN" "http://www.w3.org/Graphics/SVG/1.1/DTD/svg11.dtd">
<svg xmlns="http://www.w3.org/2000/svg" version="1.1" width="107px" height="27px" style="shape-rendering:geometricPrecision; text-rendering:geometricPrecision; image-rendering:optimizeQuality; fill-rule:evenodd; clip-rule:evenodd" xmlns:xlink="http://www.w3.org/1999/xlink">
<g><path style="opacity:0.762" fill="#000000" d="M 14.5,-0.5 C 15.8333,-0.5 17.1667,-0.5 18.5,-0.5C 18.6663,6.17499 18.4996,12.8417 18,19.5C 17.3147,22.0573 15.8147,23.8906 13.5,25C 6.57553,27.2536 1.90886,25.0869 -0.5,18.5C -0.5,17.1667 -0.5,15.8333 -0.5,14.5C 2.32382,7.50567 7.15715,5.50567 14,8.5C 14.498,5.51838 14.6646,2.51838 14.5,-0.5 Z M 6.5,11.5 C 10.7029,10.7021 13.3695,12.3688 14.5,16.5C 12.6503,21.7533 9.48363,22.7533 5,19.5C 4.10929,16.5024 4.60929,13.8357 6.5,11.5 Z"/></g>
<g><path style="opacity:0.761" fill="#000000" d="M 56.5,-0.5 C 57.8333,-0.5 59.1667,-0.5 60.5,-0.5C 60.3343,3.84611 60.501,8.17944 61,12.5C 64.0823,10.375 67.2489,8.37502 70.5,6.5C 72.2828,7.34815 72.7828,8.68148 72,10.5C 69.8333,12 67.6667,13.5 65.5,15C 69.2361,17.6587 71.5694,21.1587 72.5,25.5C 67.7774,24.6309 64.2774,21.9643 62,17.5C 60.6253,19.9368 60.1253,22.6035 60.5,25.5C 59.1667,25.5 57.8333,25.5 56.5,25.5C 56.5,16.8333 56.5,8.16667 56.5,-0.5 Z"/></g>
<g><path style="opacity:0.743" fill="#000000" d="M 26.5,6.5 C 35.4726,6.98021 38.9726,11.6469 37,20.5C 34.1034,25.1549 29.9367,26.6549 24.5,25C 19.8451,22.1034 18.3451,17.9367 20,12.5C 21.4361,9.55813 23.6028,7.55813 26.5,6.5 Z M 26.5,11.5 C 33.8029,12.2666 35.1363,15.4332 30.5,21C 23.075,20.4845 21.7416,17.3178 26.5,11.5 Z"/></g>
<g><path style="opacity:0.729" fill="#000000" d="M 46.5,6.5 C 51.1679,6.14012 53.8346,8.14012 54.5,12.5C 52.3037,12.41 50.137,12.0767 48,11.5C 43.7941,12.5282 42.4608,15.1948 44,19.5C 46.7953,22.113 49.6286,22.113 52.5,19.5C 55.1047,21.2358 55.1047,23.0692 52.5,25C 40.241,26.075 36.4077,20.9084 41,9.5C 42.8761,8.39127 44.7095,7.39127 46.5,6.5 Z"/></g>
<g><path style="opacity:0.761" fill="#000000" d="M 79.5,6.5 C 87.9767,6.13576 91.6434,9.96909 90.5,18C 86.1667,18.3333 81.8333,18.6667 77.5,19C 78.5289,20.6984 80.0289,21.5317 82,21.5C 83.9091,20.8443 85.7424,20.3443 87.5,20C 88.8602,21.9376 88.5268,23.6043 86.5,25C 74.0522,26.2781 70.2189,21.1114 75,9.5C 76.6516,8.60064 78.1516,7.60064 79.5,6.5 Z M 79.5,11.5 C 82.3456,11.0301 84.6789,11.8634 86.5,14C 83.5,14.6667 80.5,14.6667 77.5,14C 78.3805,13.2917 79.0472,12.4584 79.5,11.5 Z"/></g>
<g><path style="opacity:0.775" fill="#000000" d="M 106.5,8.5 C 106.5,9.16667 106.5,9.83333 106.5,10.5C 103.66,11.1204 100.826,11.7871 98,12.5C 96.6326,16.6996 96.1326,21.0329 96.5,25.5C 95.1667,25.5 93.8333,25.5 92.5,25.5C 92.3338,19.4908 92.5005,13.4908 93,7.5C 95.7426,7.67392 98.576,7.34058 101.5,6.5C 103.3,6.90244 104.967,7.56911 106.5,8.5 Z"/></g>
<g><path style="opacity:0.389" fill="#000000" d="M 100.5,20.5 C 102.167,20.5 103.833,20.5 105.5,20.5C 105.5,22.1667 105.5,23.8333 105.5,25.5C 101.5,26.1667 99.8333,24.5 100.5,20.5 Z"/></g>
</svg>
