<?xml version="1.0" encoding="UTF-8"?>
<!DOCTYPE svg PUBLIC "-//W3C//DTD SVG 1.1//EN" "http://www.w3.org/Graphics/SVG/1.1/DTD/svg11.dtd">
<svg xmlns="http://www.w3.org/2000/svg" version="1.1" width="114px" height="26px" style="shape-rendering:geometricPrecision; text-rendering:geometricPrecision; image-rendering:optimizeQuality; fill-rule:evenodd; clip-rule:evenodd" xmlns:xlink="http://www.w3.org/1999/xlink">
<g><path style="opacity:0.768" fill="#000000" d="M 19.5,-0.5 C 21.1667,-0.5 22.8333,-0.5 24.5,-0.5C 24.5,1.16667 24.5,2.83333 24.5,4.5C 25.8333,4.5 27.1667,4.5 28.5,4.5C 28.5,6.16667 28.5,7.83333 28.5,9.5C 27.1667,9.5 25.8333,9.5 24.5,9.5C 24.3347,13.1817 24.5014,16.8484 25,20.5C 26.3561,21.3802 27.8561,21.7135 29.5,21.5C 29.5,15.8333 29.5,10.1667 29.5,4.5C 34.1968,4.81827 38.8635,4.81827 43.5,4.5C 43.5,5.5 43.5,6.5 43.5,7.5C 42.6618,7.84171 42.3284,8.50838 42.5,9.5C 40.1695,8.20908 38.0028,8.54242 36,10.5C 34.6115,15.3722 34.1115,20.3722 34.5,25.5C 30.1667,25.5 25.8333,25.5 21.5,25.5C 21.2172,24.7109 20.7172,24.0442 20,23.5C 19.5008,18.8452 19.3342,14.1785 19.5,9.5C 15.1583,10.9697 10.9916,10.6363 7,8.5C 5.94123,8.63008 5.1079,9.13008 4.5,10C 8.01779,11.8364 11.5178,13.6697 15,15.5C 16.4188,19.9177 15.2522,23.2511 11.5,25.5C 8.83333,25.5 6.16667,25.5 3.5,25.5C 2.20498,24.5116 0.871651,23.5116 -0.5,22.5C -0.5,21.5 -0.5,20.5 -0.5,19.5C 0.69484,19.3225 1.86151,18.9891 3,18.5C 4.39571,19.3943 5.89571,20.0609 7.5,20.5C 9.00038,20.5472 10.0004,19.8805 10.5,18.5C 5.92598,17.3916 2.25932,15.0582 -0.5,11.5C -0.5,10.5 -0.5,9.5 -0.5,8.5C 1.40296,5.46728 4.2363,4.13395 8,4.5C 10.981,4.08146 13.3144,5.08146 15,7.5C 15.4828,6.55198 15.6495,5.55198 15.5,4.5C 18.9103,4.61623 20.2436,2.94956 19.5,-0.5 Z"/></g>
<g><path style="opacity:0.757" fill="#000000" d="M 84.5,25.5 C 82.8333,25.5 81.1667,25.5 79.5,25.5C 78.8333,24.1667 78.1667,24.1667 77.5,25.5C 74.8333,25.5 72.1667,25.5 69.5,25.5C 65.6018,23.3885 63.4352,20.0552 63,15.5C 58.4335,17.0899 53.6002,18.0899 48.5,18.5C 50.1792,19.782 52.0126,20.782 54,21.5C 55.913,19.8131 58.0797,19.3131 60.5,20C 61.4506,20.7175 61.6172,21.5509 61,22.5C 59.5913,23.7811 58.0913,24.7811 56.5,25.5C 54.1667,25.5 51.8333,25.5 49.5,25.5C 42.9317,22.1566 40.5984,16.8233 42.5,9.5C 43.3382,9.15829 43.6716,8.49162 43.5,7.5C 49.6728,3.16954 55.5062,3.50287 61,8.5C 61.8899,14.1461 62.8899,14.4794 64,9.5C 67.8729,3.87489 72.8729,2.54155 79,5.5C 80.6995,4.59391 82.5328,4.26057 84.5,4.5C 84.5,11.5 84.5,18.5 84.5,25.5 Z M 50.5,8.5 C 53.2776,8.02166 55.2776,9.02166 56.5,11.5C 53.5541,12.6548 50.5541,12.8214 47.5,12C 48.7101,10.9609 49.7101,9.79423 50.5,8.5 Z M 71.5,8.5 C 76.9491,8.44812 79.4491,11.1148 79,16.5C 76.1273,21.4077 72.794,21.741 69,17.5C 67.9271,13.9003 68.7605,10.9003 71.5,8.5 Z"/></g>
<g><path style="opacity:0.798" fill="#000000" d="M 113.5,7.5 C 113.5,13.5 113.5,19.5 113.5,25.5C 112.167,25.5 110.833,25.5 109.5,25.5C 109.666,20.8215 109.499,16.1548 109,11.5C 107,7.5 105,7.5 103,11.5C 102.501,16.1548 102.334,20.8215 102.5,25.5C 100.833,25.5 99.1667,25.5 97.5,25.5C 97.666,20.1563 97.4994,14.8229 97,9.5C 95.0624,8.13983 93.3957,8.47316 92,10.5C 91.5007,15.4889 91.3341,20.4889 91.5,25.5C 89.8333,25.5 88.1667,25.5 86.5,25.5C 86.5,18.5 86.5,11.5 86.5,4.5C 89.5514,4.63554 92.5514,4.30221 95.5,3.5C 97.6967,3.84808 99.53,4.84808 101,6.5C 105.493,2.49581 109.659,2.82914 113.5,7.5 Z"/></g>
</svg>
